HIERARCHY
ROOT pelvis
{
	OFFSET 0.003123 -0.351407 0.012037
	CHANNELS 6 Xposition Yposition Zposition Zrotation Yrotation Xrotation 
	JOINT left_hip
	{
		OFFSET 0.058189 -0.092763 -0.026001
		CHANNELS 3 Zrotation Yrotation Xrotation
		JOINT left_knee
		{
			OFFSET 0.054695 -0.378753 -0.009396
			CHANNELS 3 Zrotation Yrotation Xrotation
			JOINT left_ankle
			{
				OFFSET -0.043453 -0.403059 -0.031876
				CHANNELS 3 Zrotation Yrotation Xrotation
				JOINT left_foot
				{
					OFFSET 0.047257 -0.057997 0.118216
					CHANNELS 3 Zrotation Yrotation Xrotation
					End Site
					{
						OFFSET 0.000000 0.000000 0.000000
					}
				}
			}
		}
	}
	JOINT right_hip
	{
		OFFSET -0.063267 -0.103908 -0.021250
		CHANNELS 3 Zrotation Yrotation Xrotation
		JOINT right_knee
		{
			OFFSET -0.044210 -0.362380 -0.016824
			CHANNELS 3 Zrotation Yrotation Xrotation
			JOINT right_ankle
			{
				OFFSET 0.015417 -0.410728 -0.020192
				CHANNELS 3 Zrotation Yrotation Xrotation
				JOINT right_foot
				{
					OFFSET -0.038812 -0.058328 0.119049
					CHANNELS 3 Zrotation Yrotation Xrotation
					End Site
					{
						OFFSET 0.000000 0.000000 0.000000
					}
				}
			}
		}
	}
	JOINT spine_1
	{
		OFFSET -0.002763 0.109891 -0.027618
		CHANNELS 3 Zrotation Yrotation Xrotation
		JOINT spine_2
		{
			OFFSET 0.009448 0.131853 -0.005940
			CHANNELS 3 Zrotation Yrotation Xrotation
			JOINT spine_3
			{
				OFFSET -0.011330 0.052235 0.028447
				CHANNELS 3 Zrotation Yrotation Xrotation
				JOINT neck
				{
					OFFSET -0.012164 0.165167 -0.031615
					CHANNELS 3 Zrotation Yrotation Xrotation
					JOINT head
					{
						OFFSET 0.024783 0.160452 0.020737
						CHANNELS 3 Zrotation Yrotation Xrotation
						End Site
						{
							OFFSET 0.000000 0.000000 0.000000
						}
					}
				}
				JOINT left_collar
				{
					OFFSET 0.046364 0.084944 -0.007220
					CHANNELS 3 Zrotation Yrotation Xrotation
					JOINT left_shoulder
					{
						OFFSET 0.119239 0.057728 -0.015461
						CHANNELS 3 Zrotation Yrotation Xrotation
						JOINT left_elbow
						{
							OFFSET 0.254123 -0.072151 -0.042459
							CHANNELS 3 Zrotation Yrotation Xrotation
							JOINT left_wrist
							{
								OFFSET 0.251987 0.023221 -0.002472
								CHANNELS 3 Zrotation Yrotation Xrotation
								JOINT left_index_1
								{
									OFFSET 0.101902 -0.008688 0.019351
									CHANNELS 3 Zrotation Yrotation Xrotation
									JOINT left_index_2
									{
										OFFSET 0.030149 -0.011154 0.001151
										CHANNELS 3 Zrotation Yrotation Xrotation
										JOINT left_index_3
										{
											OFFSET 0.006504 -0.021577 -0.002433
											CHANNELS 3 Zrotation Yrotation Xrotation
											End Site
											{
												OFFSET 0.000000 0.000000 0.000000
											}
										}
									}
								}
								JOINT left_middle_1
								{
									OFFSET 0.109398 -0.006328 -0.003981
									CHANNELS 3 Zrotation Yrotation Xrotation
									JOINT left_middle_2
									{
										OFFSET 0.026472 -0.015218 -0.004641
										CHANNELS 3 Zrotation Yrotation Xrotation
										JOINT left_middle_3
										{
											OFFSET 0.005022 -0.023347 -0.001911
											CHANNELS 3 Zrotation Yrotation Xrotation
											End Site
											{
												OFFSET 0.000000 0.000000 0.000000
											}
										}
									}
								}
								JOINT left_pinky_1
								{
									OFFSET 0.084047 -0.014539 -0.043750
									CHANNELS 3 Zrotation Yrotation Xrotation
									JOINT left_pinky_2
									{
										OFFSET 0.012124 -0.014448 -0.005375
										CHANNELS 3 Zrotation Yrotation Xrotation
										JOINT left_pinky_3
										{
											OFFSET 0.003798 -0.018853 0.000167
											CHANNELS 3 Zrotation Yrotation Xrotation
											End Site
											{
												OFFSET 0.000000 0.000000 0.000000
											}
										}
									}
								}
								JOINT left_ring_1
								{
									OFFSET 0.097444 -0.009268 -0.027345
									CHANNELS 3 Zrotation Yrotation Xrotation
									JOINT left_ring_2
									{
										OFFSET 0.023561 -0.016057 -0.001895
										CHANNELS 3 Zrotation Yrotation Xrotation
										JOINT left_ring_3
										{
											OFFSET 0.004257 -0.023548 0.000814
											CHANNELS 3 Zrotation Yrotation Xrotation
											End Site
											{
												OFFSET 0.000000 0.000000 0.000000
											}
										}
									}
								}
								JOINT left_thumb_1
								{
									OFFSET 0.040636 -0.017977 0.025611
									CHANNELS 3 Zrotation Yrotation Xrotation
									JOINT left_thumb_2
									{
										OFFSET 0.021637 -0.017639 0.011623
										CHANNELS 3 Zrotation Yrotation Xrotation
										JOINT left_thumb_3
										{
											OFFSET 0.024002 -0.008356 0.006548
											CHANNELS 3 Zrotation Yrotation Xrotation
											End Site
											{
												OFFSET 0.000000 0.000000 0.000000
											}
										}
									}
								}
							}
						}
					}
				}
				JOINT right_collar
				{
					OFFSET -0.047695 0.084339 -0.013400
					CHANNELS 3 Zrotation Yrotation Xrotation
					JOINT right_shoulder
					{
						OFFSET -0.102578 0.053524 -0.012669
						CHANNELS 3 Zrotation Yrotation Xrotation
						JOINT right_elbow
						{
							OFFSET -0.271150 -0.036492 -0.026467
							CHANNELS 3 Zrotation Yrotation Xrotation
							JOINT right_wrist
							{
								OFFSET -0.249267 -0.004533 -0.015325
								CHANNELS 3 Zrotation Yrotation Xrotation
								JOINT right_index_1
								{
									OFFSET -0.099881 -0.011783 0.019600
									CHANNELS 3 Zrotation Yrotation Xrotation
									JOINT right_index_2
									{
										OFFSET -0.030148 -0.011154 0.001151
										CHANNELS 3 Zrotation Yrotation Xrotation
										JOINT right_index_3
										{
											OFFSET -0.006505 -0.021577 -0.002432
											CHANNELS 3 Zrotation Yrotation Xrotation
											End Site
											{
												OFFSET 0.000000 0.000000 0.000000
											}
										}
									}
								}
								JOINT right_middle_1
								{
									OFFSET -0.107376 -0.009422 -0.003734
									CHANNELS 3 Zrotation Yrotation Xrotation
									JOINT right_middle_2
									{
										OFFSET -0.026472 -0.015218 -0.004641
										CHANNELS 3 Zrotation Yrotation Xrotation
										JOINT right_middle_3
										{
											OFFSET -0.005022 -0.023347 -0.001911
											CHANNELS 3 Zrotation Yrotation Xrotation
											End Site
											{
												OFFSET 0.000000 0.000000 0.000000
											}
										}
									}
								}
								JOINT right_pinky_1
								{
									OFFSET -0.082027 -0.017634 -0.043503
									CHANNELS 3 Zrotation Yrotation Xrotation
									JOINT right_pinky_2
									{
										OFFSET -0.012123 -0.014448 -0.005374
										CHANNELS 3 Zrotation Yrotation Xrotation
										JOINT right_pinky_3
										{
											OFFSET -0.003798 -0.018852 0.000167
											CHANNELS 3 Zrotation Yrotation Xrotation
											End Site
											{
												OFFSET 0.000000 0.000000 0.000000
											}
										}
									}
								}
								JOINT right_ring_1
								{
									OFFSET -0.095423 -0.012362 -0.027099
									CHANNELS 3 Zrotation Yrotation Xrotation
									JOINT right_ring_2
									{
										OFFSET -0.023561 -0.016057 -0.001895
										CHANNELS 3 Zrotation Yrotation Xrotation
										JOINT right_ring_3
										{
											OFFSET -0.004257 -0.023548 0.000816
											CHANNELS 3 Zrotation Yrotation Xrotation
											End Site
											{
												OFFSET 0.000000 0.000000 0.000000
											}
										}
									}
								}
								JOINT right_thumb_1
								{
									OFFSET -0.038613 -0.021074 0.025861
									CHANNELS 3 Zrotation Yrotation Xrotation
									JOINT right_thumb_2
									{
										OFFSET -0.021636 -0.017639 0.011623
										CHANNELS 3 Zrotation Yrotation Xrotation
										JOINT right_thumb_3
										{
											OFFSET -0.024004 -0.008353 0.006547
											CHANNELS 3 Zrotation Yrotation Xrotation
											End Site
											{
												OFFSET 0.000000 0.000000 0.000000
											}
										}
									}
								}
							}
						}
					}
				}
			}
		}
	}
}
MOTION
Frames: 7
Frame Time: 0.050000
0.000027 0.939006 0.000587 -0.318249 -0.641027 -4.803310 16.618172 -0.236555 -13.548786 -7.518123 -0.286912 21.262147 -3.707018 3.218685 13.521099 0.000000 0.000000 0.000000 -11.154128 0.183322 12.268571 5.372224 -0.378671 14.125685 -3.297892 -9.830331 7.061726 0.000000 0.000000 0.000000 0.474853 -0.758084 10.290919 -7.286640 -2.294437 -22.736467 8.093537 0.644482 31.409262 -1.504509 2.906408 -20.069473 0.000000 0.000000 0.000000 4.465052 0.858040 0.006906 -62.691241 -42.808451 1.061204 -178.370483 -84.333325 -167.162086 2.888080 0.710065 -11.246004 4.203629 -1.670335 -0.763588 23.186714 -1.943868 -5.876077 0.000000 0.000000 0.000000 4.032591 -3.781765 -1.675803 21.136376 -0.922637 -0.779589 0.000000 0.000000 0.000000 15.675049 -9.058114 -8.933570 7.855647 1.783297 9.306540 0.000000 0.000000 0.000000 5.098941 -2.930995 -1.995822 18.748060 1.163465 -0.851755 0.000000 0.000000 0.000000 13.678533 5.436804 -3.756684 -16.238101 -7.554232 2.311521 0.000000 0.000000 0.000000 6.499108 1.492113 0.345876 64.471905 25.336643 3.533171 129.301390 55.914307 93.165162 -1.480728 -3.779108 3.003516 -0.788463 2.313092 -0.930586 -22.107061 2.793025 -1.427212 0.000000 0.000000 0.000000 -4.503022 5.281203 -2.510588 -16.662813 1.225331 4.917402 0.000000 0.000000 0.000000 -17.877659 8.692468 -3.949720 -5.676346 -1.151515 8.465255 0.000000 0.000000 0.000000 -8.076796 2.889190 -1.517787 -13.987739 -0.394925 1.649549 0.000000 0.000000 0.000000 -7.081962 -5.891042 1.802749 10.470496 10.252315 0.368413 0.000000 0.000000 0.000000 
0.000027 0.939812 0.000587 -0.208213 -0.540648 -4.477874 16.345835 -0.279657 -13.965990 -7.270220 -0.354610 21.147727 -3.830289 3.414093 14.101195 0.000000 0.000000 0.000000 -11.198701 0.189256 12.288161 5.340307 -0.371875 13.486884 -3.344925 -10.255351 7.939475 0.000000 0.000000 0.000000 0.500550 -0.716290 9.744689 -7.225364 -2.498374 -23.482883 8.245278 1.288177 32.716214 -1.521274 2.923875 -20.316524 0.000000 0.000000 0.000000 4.576749 0.601405 0.156377 -63.054552 -43.401196 1.036519 177.595368 -84.200897 -162.596976 2.686103 0.949639 -11.700438 3.364378 -1.015604 -0.486256 22.940863 -1.892727 -6.097271 0.000000 0.000000 0.000000 5.119673 -4.829067 -2.199500 17.943297 -0.533941 2.214203 0.000000 0.000000 0.000000 16.073752 -9.036047 -8.913343 7.724757 1.887043 9.714317 0.000000 0.000000 0.000000 6.227238 -3.815338 -2.686870 17.258890 1.232245 1.156008 0.000000 0.000000 0.000000 12.805592 5.954886 -2.820983 -13.892234 -9.977835 0.957126 0.000000 0.000000 0.000000 6.737657 0.813735 -0.012138 64.407664 25.398166 3.681670 129.370882 56.311712 94.190802 -1.542367 -3.426380 3.165789 -0.315987 1.450687 -0.571132 -21.748143 2.879401 -2.284925 0.000000 0.000000 0.000000 -3.947329 4.358802 -1.993538 -17.566495 1.408622 4.131993 0.000000 0.000000 0.000000 -17.404882 8.666707 -4.034840 -3.560911 -1.286491 8.551720 0.000000 0.000000 0.000000 -6.426085 2.173401 -1.055319 -14.452460 -0.347355 0.735049 0.000000 0.000000 0.000000 -7.073831 -5.319449 1.263955 10.845232 8.418087 0.942795 0.000000 0.000000 0.000000 
0.000616 0.939812 -0.000732 -0.135446 -0.509704 -4.464377 16.156740 -0.303004 -13.987820 -7.041175 -0.419123 21.156834 -3.795162 3.225465 13.723904 0.000000 0.000000 0.000000 -11.369643 0.217540 12.101911 5.453752 -0.393219 13.640878 -3.194045 -9.713104 7.212950 0.000000 0.000000 0.000000 0.659589 -0.756879 10.219122 -7.327982 -2.793049 -24.773807 8.217677 1.363423 34.010529 -1.521832 2.988031 -20.889110 0.000000 0.000000 0.000000 4.531403 0.749365 0.084072 -63.424982 -43.566858 1.085409 173.010647 -84.028189 -157.348905 2.772640 0.936042 -11.489415 4.183609 -1.468619 -0.689698 23.449700 -1.950305 -6.032991 0.000000 0.000000 0.000000 3.946874 -3.705016 -1.643321 21.660125 -0.936939 -0.439388 0.000000 0.000000 0.000000 16.065276 -8.925081 -8.598787 6.618933 2.088661 10.428893 0.000000 0.000000 0.000000 5.030962 -2.792141 -1.893089 19.439540 1.223829 -0.425218 0.000000 0.000000 0.000000 14.261201 6.074820 -3.523380 -17.055761 -8.004698 2.487715 0.000000 0.000000 0.000000 6.640971 1.261067 0.283003 64.215730 26.126572 3.977493 129.623091 57.177046 95.893853 -1.211714 -3.833361 1.898892 -0.810065 2.737037 -1.086711 -20.964533 2.410650 0.182133 0.000000 0.000000 0.000000 -4.545137 4.280764 -1.874615 -16.862417 1.258026 3.589014 0.000000 0.000000 0.000000 -18.741410 9.063354 -4.498646 -2.802560 -1.460377 8.836907 0.000000 0.000000 0.000000 -7.195721 3.237987 -1.856068 -13.933324 -0.525889 3.049902 0.000000 0.000000 0.000000 -6.965887 -5.798434 1.663231 10.332443 10.463755 0.220506 0.000000 0.000000 0.000000 
0.000616 0.939006 -0.000732 -0.084951 -0.066699 -4.659243 15.833484 -0.369908 -14.166866 -6.776777 -0.554205 21.799661 -4.053117 2.697295 13.450572 0.000000 0.000000 0.000000 -11.506222 0.193471 12.904396 5.627699 -0.430308 13.121936 -3.429104 -10.140810 7.349974 0.000000 0.000000 0.000000 0.339825 -0.765069 10.572732 -7.091789 -2.644895 -24.021944 8.330927 1.742503 32.868375 -1.494839 2.955319 -20.687851 0.000000 0.000000 0.000000 4.742766 0.023513 0.464638 -64.247469 -43.540787 1.125839 169.978637 -83.962083 -154.107729 3.129653 0.686424 -11.846848 2.964275 -0.841615 -0.409069 23.908342 -1.894185 -5.490386 0.000000 0.000000 0.000000 5.154180 -4.623298 -2.061201 18.067874 -0.529921 2.383760 0.000000 0.000000 0.000000 15.480546 -8.500720 -8.071611 7.732995 1.858813 9.591505 0.000000 0.000000 0.000000 6.387050 -3.702497 -2.587372 17.244920 1.250341 1.384852 0.000000 0.000000 0.000000 13.555671 6.215129 -3.021050 -16.572051 -7.613587 2.398271 0.000000 0.000000 0.000000 6.513559 0.609515 -0.063422 64.664306 25.338005 3.923257 128.054795 56.575071 93.098672 -1.807133 -3.463819 2.046366 0.469270 1.661647 -0.600268 -22.443765 2.765807 -1.575762 0.000000 0.000000 0.000000 -3.605498 4.629048 -2.207719 -16.853131 1.215760 4.501438 0.000000 0.000000 0.000000 -18.181311 8.549692 -3.791940 -2.749064 -1.459058 8.899787 0.000000 0.000000 0.000000 -6.094565 2.194683 -1.113238 -14.433869 -0.427964 1.075895 0.000000 0.000000 0.000000 -5.762279 -5.707567 2.182219 9.852306 10.393277 0.073479 0.000000 0.000000 0.000000 
0.000616 0.939006 -0.000732 0.038862 0.017575 -4.658947 15.680869 -0.393719 -14.214168 -6.637605 -0.600923 21.849589 -4.265131 2.362279 13.431748 0.000000 0.000000 0.000000 -11.645642 0.216869 12.580759 5.801267 -0.470111 13.737166 -3.520232 -10.238233 7.226360 0.000000 0.000000 0.000000 0.339202 -0.763247 10.576422 -7.169725 -2.619402 -24.039108 8.302501 1.669435 32.874406 -1.411133 2.953999 -20.686819 0.000000 0.000000 0.000000 4.645423 0.410159 0.283134 -65.144228 -43.450994 1.347905 170.994019 -84.177167 -155.268409 3.051291 0.616639 -11.542643 2.918938 -0.622708 -0.331838 23.573286 -1.902970 -5.376448 0.000000 0.000000 0.000000 4.919082 -4.570426 -2.056023 18.038365 -0.532464 2.734510 0.000000 0.000000 0.000000 15.378592 -8.502445 -8.038193 7.466107 1.877776 9.643399 0.000000 0.000000 0.000000 6.270637 -3.674599 -2.559550 17.107576 1.245297 1.700197 0.000000 0.000000 0.000000 13.412721 6.438583 -2.703533 -14.847544 -9.700273 1.370302 0.000000 0.000000 0.000000 6.453150 0.549988 -0.095034 65.074505 25.356219 4.000500 127.145942 57.209347 92.832286 -1.499497 -3.349689 1.841497 0.201274 0.725406 -0.264027 -22.637583 2.848281 -2.469296 0.000000 0.000000 0.000000 -4.274623 4.124802 -1.808013 -16.311914 1.157976 4.114253 0.000000 0.000000 0.000000 -17.668300 8.560050 -4.090478 -3.025860 -1.527869 9.363259 0.000000 0.000000 0.000000 -6.246146 2.960884 -1.688409 -15.197656 -0.558743 3.815977 0.000000 0.000000 0.000000 -6.829923 -5.327402 1.261193 11.520884 7.964096 1.213985 0.000000 0.000000 0.000000 
0.000616 0.939006 -0.000732 -0.029581 -0.004038 -4.660164 15.634790 -0.396363 -14.206829 -6.417805 -0.650941 21.686620 -4.257842 2.377617 13.441457 0.000000 0.000000 0.000000 -11.565197 0.205368 12.574691 5.780372 -0.465339 13.747119 -3.492936 -10.199670 7.240143 0.000000 0.000000 0.000000 0.392696 -0.766302 10.577524 -7.202260 -2.611553 -24.038561 8.305893 1.673990 32.872879 -1.511540 2.954824 -20.680729 0.000000 0.000000 0.000000 4.525545 0.383602 0.282312 -65.318424 -43.442695 1.396406 168.107887 -83.863991 -151.937216 2.528372 1.183825 -11.797765 4.206170 -2.179233 -0.941979 22.786269 -1.800347 -4.796614 0.000000 0.000000 0.000000 4.437055 -4.254346 -1.926492 20.340521 -0.795407 0.313121 0.000000 0.000000 0.000000 15.875261 -8.856834 -8.666732 7.199111 1.980263 9.966238 0.000000 0.000000 0.000000 5.672062 -3.434373 -2.397935 18.135653 1.224978 0.362411 0.000000 0.000000 0.000000 14.172838 5.698329 -3.849028 -17.110199 -7.702720 2.559571 0.000000 0.000000 0.000000 6.163120 0.488523 -0.113721 65.678730 25.397630 4.131593 126.363754 57.673740 92.503218 -1.815966 -3.841623 1.884776 0.116820 1.471855 -0.546415 -22.310737 2.751854 -1.853821 0.000000 0.000000 0.000000 -3.894401 4.548850 -2.122216 -17.095094 1.237176 4.247027 0.000000 0.000000 0.000000 -17.185366 8.558923 -4.313872 -5.062778 -1.441600 9.770891 0.000000 0.000000 0.000000 -6.126062 3.241760 -1.906874 -15.931732 -0.563701 3.828529 0.000000 0.000000 0.000000 -6.184015 -5.605534 1.845582 9.275476 10.363332 -0.133245 0.000000 0.000000 0.000000 
0.000616 0.939006 -0.000732 0.001633 0.033561 -4.663528 15.566183 -0.406966 -14.206516 -6.495842 -0.641503 21.841571 -4.005343 2.654398 13.257238 0.000000 0.000000 0.000000 -11.513976 0.195062 12.591472 5.532556 -0.424458 13.735551 -3.363987 -9.983918 7.237141 0.000000 0.000000 0.000000 0.408906 -0.728669 10.075340 -7.295943 -2.245076 -22.728377 7.745607 0.959623 31.945720 -1.351383 2.944049 -20.494951 0.000000 0.000000 0.000000 4.437501 1.245878 -0.137316 -65.810651 -42.932388 1.676215 170.033718 -83.806893 -154.070655 3.045016 0.598748 -11.174953 3.199589 -0.538539 -0.315191 25.763078 -2.175519 -7.971048 0.000000 0.000000 0.000000 4.848190 -4.515980 -2.029045 20.450152 -0.848242 0.506618 0.000000 0.000000 0.000000 15.040009 -8.734269 -8.445188 8.985706 1.599965 8.849215 0.000000 0.000000 0.000000 5.972162 -3.766878 -2.626492 18.242718 1.197645 0.420462 0.000000 0.000000 0.000000 13.792490 6.021252 -3.268799 -15.177746 -8.960641 1.662498 0.000000 0.000000 0.000000 6.122348 1.298243 0.311314 65.623753 25.961063 4.252365 125.551859 58.112765 91.727385 -1.269217 -3.491652 2.311286 -0.379625 1.241660 -0.488883 -23.165277 2.942510 -2.684690 0.000000 0.000000 0.000000 -4.043499 4.721393 -2.216444 -16.090035 1.033431 5.835685 0.000000 0.000000 0.000000 -17.227355 8.291923 -3.756384 -3.503832 -1.353232 8.557895 0.000000 0.000000 0.000000 -6.615984 2.153425 -1.049823 -14.288603 -0.391679 0.450502 0.000000 0.000000 0.000000 -6.541230 -5.594692 1.705404 9.105077 10.386892 -0.178184 0.000000 0.000000 0.000000 
